<?xml version="1.0" encoding="UTF-8"?>
<svg id="Layer_2" data-name="Layer 2" xmlns="http://www.w3.org/2000/svg" viewBox="0 0 151.38 178.15">
  <defs>
    <style>
      .cls-1 {
        opacity: .85;
      }

      .cls-2 {
        fill: #8a969c;
      }

      .cls-2, .cls-3, .cls-4, .cls-5, .cls-6 {
        stroke-width: 0px;
      }

      .cls-3 {
        fill: #c8c8c8;
      }

      .cls-4 {
        fill: #9dabb3;
      }

      .cls-5 {
        fill: #777;
      }

      .cls-6 {
        fill: #ebebeb;
      }
    </style>
  </defs>
  <g id="Layer_1-2" data-name="Layer 1">
    <g class="cls-1">
      <path class="cls-3" d="m25.1,134.98c-.05-40.28-.11-80.57-.16-120.85,0-4.12,0-8.25,0-12.83,1.86,1.42,3.45,2.54,4.93,3.79.83.71,1.34.76,2.1-.11,1.3-1.49,2.78-2.82,4.1-4.29.72-.8,1.16-.77,1.87.02,1.32,1.47,2.79,2.81,4.12,4.28.69.76,1.14.87,1.88.04,1.36-1.52,2.87-2.91,4.25-4.41.65-.7,1.08-.71,1.73.01,1.33,1.47,2.78,2.82,4.11,4.29.72.79,1.18,1,2,.06,1.33-1.54,2.87-2.91,4.25-4.41.61-.66.98-.64,1.58,0,1.39,1.49,2.91,2.87,4.25,4.4.8.91,1.27.79,2.01-.04,1.32-1.47,2.79-2.81,4.11-4.29.67-.75,1.08-.72,1.74,0,1.33,1.47,2.8,2.8,4.12,4.28.74.83,1.21.95,2.01.04,1.35-1.53,2.86-2.91,4.25-4.4.59-.63.96-.68,1.57,0,1.33,1.47,2.83,2.78,4.11,4.28.91,1.08,1.44.87,2.26-.05,1.27-1.44,2.69-2.73,3.98-4.15.64-.71,1.07-.72,1.72-.02,1.38,1.5,2.89,2.89,4.25,4.41.74.82,1.19.73,1.88-.03,1.29-1.42,2.71-2.72,3.99-4.15.78-.87,1.3-1.01,2.13-.03,1.16,1.37,2.58,2.51,3.7,3.9,1,1.23,1.61.93,2.53-.07,1.51-1.63,3.16-3.13,4.72-4.65,1.67,1.64,3.44,3.28,5.09,5.03.75.79,1.17.75,1.87-.03,1.36-1.52,2.87-2.91,4.24-4.42.61-.67.99-.68,1.6-.02,1.34,1.45,2.81,2.8,4.12,4.28.79.89,1.45,1.01,2.51.44,2.88-1.56,5.82-2.99,8.74-4.47q2.02-1.02,2.02,1.33c0,33.35-.01,66.71-.03,100.06,0,12.81.09,25.62-.29,38.42-.21,6.99-.85,13.95-2.67,20.74-3.81-.21-5.38,1.75-6.61,5.29-1.65,4.76-5.32,7.47-10.86,7.05-3.43-.26-6.89.03-10.34.07-.53-.16-1.12-.22-1.57-.5-5.75-3.63-10.14-8.4-12.41-14.93,11.88.02,23.76-.02,35.64.1,2,.02,2.53-.84,2.83-2.51.87-4.81,1.26-9.67,1.47-14.52.27-6.11.35-12.24.37-18.35.12-37.25.07-74.51.07-111.76q0-4.29-3.82-2.36c-4.16,2.1-5.34,1.99-8.46-1.28-1.16-1.21-1.92-1.23-2.92.05-2.56,3.27-6.13,3.51-8.91.15-1.55-1.86-1.73-1.78-3.43.02-1.36,1.45-2.75,2.55-4.95,2.36-1.86-.16-2.88-1.38-3.91-2.56-1.08-1.25-1.86-1.26-2.94,0-.9,1.06-1.8,2.26-3.36,2.48-1.96.28-3.57-.2-4.99-1.74-2.34-2.52-1.83-2.37-4.16-.08-.93.91-1.85,1.78-3.29,1.88-1.73.12-3.08-.39-4.3-1.67-2.6-2.72-2.12-2.71-4.75-.05-.99,1-2.01,1.73-3.53,1.74-1.53,0-2.72-.46-3.79-1.56-2.35-2.41-2.45-2.43-4.68-.06-1.29,1.37-2.76,1.72-4.52,1.59-1.61-.12-2.46-1.32-3.46-2.31-1.73-1.7-1.72-1.72-3.33.05-2.87,3.15-5.9,3.13-8.64-.07-1.51-1.76-1.72-1.75-3.46-.05-1.05,1.02-1.93,2.25-3.62,2.38-1.87.15-3.31-.42-4.62-1.8-2.36-2.5-1.84-2.39-4.16-.07-1.08,1.08-2.27,2.14-3.82,1.99-1.55-.15-1.58.56-1.58,1.69.04,40.97.06,81.93.08,122.9-1.53.02-3.05.03-4.58.05Z"/>
      <path class="cls-2" d="m106.61,158.35c2.27,6.53,6.66,11.3,12.41,14.93.45.28,1.04.34,1.57.5,2.42,2.22,5.55,2.71,8.55,3.53.56.15,1.28-.08,1.54.72-5.38.02-10.76.06-16.15.06-27.91,0-55.82-.03-83.73,0-7.46,0-14.02-2.49-19.77-7.01C3.73,165.34.04,157.72,0,148.39c-.01-3.83-.08-7.67.73-11.46.31-1.42.85-1.99,2.45-1.97,7.3.1,14.6.03,21.91.02,1.53-.02,3.05-.03,4.58-.05.8.02,1.61.05,2.41.05,23.81,0,47.61,0,71.42,0,.49,0,.99.02,1.48,0,.76-.03,1.12.12.87,1.05-1.25,4.55-.77,9.21-.84,13.83-.05,2.94.57,5.75,1.6,8.48Zm-53.76-18.89c-5.76,0-11.51,0-17.27,0-9.59,0-19.19.01-28.78-.01-1.26,0-1.97.13-2.13,1.74-.35,3.4-.28,6.76.04,10.16.53,5.69,2.91,10.49,6.9,14.4,5.36,5.24,12,7.83,19.46,7.86,26.12.09,52.24.04,78.37.02.57,0,1.4.33,1.65-.41.18-.55-.52-.93-.92-1.29-4.7-4.42-7.6-9.84-9.01-16.1-1.03-4.58-.45-9.24-.56-13.87-.06-2.47,0-2.48-2.42-2.48-15.1,0-30.21,0-45.31,0Z"/>
      <path class="cls-4" d="m130.67,178.03c-.26-.8-.97-.56-1.54-.72-3-.82-6.13-1.31-8.55-3.53,3.45-.04,6.92-.33,10.34-.07,5.54.42,9.21-2.29,10.86-7.05,1.23-3.55,2.8-5.51,6.61-5.29-.75,3.46-2.03,6.72-3.87,9.74-3.16,5.2-7.73,7.63-13.85,6.92Z"/>
      <path class="cls-6" d="m106.61,158.35c-1.03-2.73-1.64-5.54-1.6-8.48.08-4.62-.41-9.29.84-13.83.26-.93-.11-1.08-.87-1.05-.49.02-.99,0-1.48,0-23.81,0-47.61,0-71.42,0-.8,0-1.61-.03-2.41-.05-.02-40.97-.04-81.93-.08-122.9,0-1.13.03-1.84,1.58-1.69,1.55.15,2.74-.91,3.82-1.99,2.32-2.32,1.81-2.42,4.16.07,1.31,1.39,2.75,1.95,4.62,1.8,1.69-.13,2.57-1.36,3.62-2.38,1.74-1.7,1.95-1.71,3.46.05,2.75,3.19,5.78,3.22,8.64.07,1.61-1.77,1.6-1.76,3.33-.05,1,.98,1.85,2.18,3.46,2.31,1.76.13,3.23-.22,4.52-1.59,2.23-2.37,2.33-2.35,4.68.06,1.07,1.1,2.26,1.57,3.79,1.56,1.52,0,2.54-.74,3.53-1.74,2.63-2.66,2.15-2.67,4.75.05,1.22,1.28,2.57,1.79,4.3,1.67,1.44-.1,2.36-.97,3.29-1.88,2.34-2.29,1.82-2.44,4.16.08,1.42,1.54,3.04,2.02,4.99,1.74,1.56-.22,2.45-1.42,3.36-2.48,1.08-1.26,1.85-1.24,2.94,0,1.03,1.18,2.05,2.4,3.91,2.56,2.2.19,3.59-.91,4.95-2.36,1.69-1.8,1.88-1.88,3.43-.02,2.78,3.36,6.35,3.12,8.91-.15,1.01-1.28,1.76-1.26,2.92-.05,3.12,3.26,4.3,3.37,8.46,1.28q3.82-1.93,3.82,2.36c0,37.25.04,74.51-.07,111.76-.02,6.11-.1,12.24-.37,18.35-.22,4.85-.6,9.72-1.47,14.52-.3,1.67-.83,2.53-2.83,2.51-11.88-.12-23.76-.08-35.64-.1Zm-21.42-127.3c15.53,0,31.05,0,46.58,0,1.79,0,2.17-.48,1.84-2.21-.28-1.5-1.48-.86-2.24-.86-30.68-.04-61.36-.03-92.04-.03-.31,0-.62.03-.93,0-1.03-.09-1.34.36-1.43,1.39-.15,1.68.77,1.73,2.02,1.73,15.4-.02,30.8-.02,46.21-.02Zm20.4,55.29c8.91,0,17.82-.03,26.73.03,1.36,0,1.79-.33,1.81-1.74.01-1.49-.57-1.7-1.86-1.69-17.7.04-35.4.04-53.1,0-1.35,0-1.82.32-1.83,1.75-.01,1.5.61,1.69,1.88,1.68,8.79-.04,17.58-.02,26.36-.02Zm-7.98-14.82c-6.13,0-12.26.05-18.38-.04-1.48-.02-1.74.52-1.71,1.83.03,1.27.1,1.99,1.75,1.98,12.13-.07,24.26-.07,36.39,0,1.46,0,1.76-.5,1.72-1.82-.03-1.28-.1-2.02-1.76-1.99-6,.11-12.01.04-18.01.04Zm-2.4-10.07c-5.43,0-10.87.03-16.3-.03-1.21-.01-1.64.33-1.6,1.55.04,1.06.12,1.72,1.48,1.72,10.87-.04,21.74-.05,32.61,0,1.36,0,1.43-.63,1.47-1.69.04-1.18-.29-1.6-1.54-1.59-5.37.06-10.75.03-16.12.03Zm-4.85,48.63c3.9,0,7.79-.05,11.69.03,1.26.02,1.55-.44,1.55-1.61,0-1.16-.28-1.63-1.54-1.63-7.79.05-15.58.05-23.37,0-1.25,0-1.55.45-1.54,1.62,0,1.16.26,1.64,1.54,1.61,3.89-.08,7.79-.03,11.69-.03Zm-1.04-56.8c3.52,0,7.05-.06,10.57.03,1.37.04,1.46-.61,1.46-1.67,0-1.11-.03-1.83-1.52-1.81-6.98.07-13.97.07-20.95,0-1.53-.01-1.45.82-1.5,1.87-.05,1.19.32,1.63,1.56,1.6,3.46-.07,6.92-.03,10.38-.03Zm-4.41,69.32c2.1,0,4.2-.05,6.29.02,1.51.05,1.32-.95,1.27-1.86-.04-.89.44-2.07-1.26-2.05-4.19.05-8.39.05-12.58,0-1.5-.02-1.33.95-1.3,1.86.03.91-.38,2.09,1.29,2.05,2.1-.05,4.19-.01,6.29-.01Zm39.73-27.77c-2.54,0-5.07.08-7.61-.03-1.43-.06-1.6.59-1.58,1.77.01,1.1.17,1.68,1.5,1.66,5.07-.07,10.14-.07,15.21,0,1.36.02,1.45-.6,1.48-1.67.03-1.18-.16-1.82-1.58-1.76-2.47.11-4.95.03-7.42.03ZM45.61,53.3c2.47,0,4.93-.08,7.4.03,1.46.07,1.38-.77,1.39-1.74.02-1.03-.03-1.75-1.43-1.73-4.87.07-9.74.07-14.61,0-1.44-.02-1.37.79-1.38,1.76,0,1-.02,1.78,1.41,1.71,2.4-.12,4.81-.03,7.21-.03Zm-.37,44.93c2.35,0,4.7-.08,7.05.03,1.45.07,1.57-.62,1.56-1.77,0-1.09-.16-1.68-1.49-1.66-4.64.08-9.28.08-13.91,0-1.36-.02-1.45.61-1.48,1.68-.03,1.19.19,1.82,1.6,1.75,2.22-.11,4.45-.03,6.68-.03Zm80.74-44.93c2.1,0,4.21-.07,6.31.03,1.3.06,1.39-.63,1.33-1.6-.06-.88.29-1.89-1.27-1.86-4.21.07-8.41.06-12.62,0-1.56-.02-1.18,1.03-1.25,1.89-.09,1.02.13,1.62,1.38,1.57,2.04-.09,4.08-.02,6.12-.02Zm-79.7,21.91c2.78,0,5.55-.03,8.33.02.95.02,1.31-.28,1.31-1.26,0-1.01-.45-1.25-1.36-1.24-5.43.02-10.86.03-16.29,0-.95,0-1.29.33-1.3,1.3-.01,1.04.46,1.22,1.35,1.21,2.65-.04,5.31-.01,7.96-.01Zm81.81,43.53h0c-1.54,0-3.08.01-4.62,0-1.36,0-1.03,1.04-.95,1.73.08.76-.68,2.09.92,2.12,3.02.07,6.04.07,9.06,0,1.77-.04.97-1.5,1.12-2.39.15-.93-.12-1.53-1.26-1.47-1.41.07-2.83.02-4.25.02Zm-85.64,0c-1.42,0-2.83.05-4.25-.01-1.39-.06-1.29.88-1.2,1.73.09.84-.6,2.16,1.12,2.16,2.89,0,5.79-.02,8.68.01,1.7.02,1.16-1.22,1.23-2.1.07-.94.13-1.89-1.34-1.81-1.41.08-2.83.02-4.25.02Zm1.14-11.83c-1.79,0-3.59.05-5.38-.02-1.39-.05-1.19.87-1.23,1.74-.04.94.14,1.5,1.29,1.48,3.59-.06,7.18-.07,10.76,0,1.31.03,1.31-.69,1.34-1.64.03-1.03-.16-1.64-1.4-1.59-1.79.08-3.59.02-5.38.02Zm63.96,15.71c1.35,0,2.71-.04,4.06.01,1.72.07,1.18-1.19,1.22-2.05.04-.87.32-1.9-1.23-1.86-2.64.07-5.29.07-7.93,0-1.56-.04-1.25,1.01-1.22,1.87.03.87-.48,2.12,1.24,2.04,1.29-.06,2.58-.01,3.87-.01Zm20.33-47.36c1.48,0,2.97-.07,4.45.02,1.34.08,1.4-.72,1.27-1.64-.11-.83.6-2.13-1.17-2.11-2.9.03-5.81.05-8.71,0-1.6-.03-1.15,1.09-1.19,1.92-.04.89-.28,1.94,1.27,1.84,1.35-.08,2.72-.02,4.08-.02Zm-85.24-13.8c-1.42,0-2.84.07-4.25-.02-1.22-.08-1.44.48-1.41,1.53.03,1.01,0,1.79,1.43,1.74,2.58-.1,5.18-.07,7.76,0,1.24.03,1.9-.14,1.92-1.66.02-1.6-.78-1.64-1.94-1.59-1.17.05-2.34.01-3.51.01Zm-.22,21.51c-1.42,0-2.84.05-4.26-.02-1.28-.06-1.21.76-1.15,1.58.06.76-.42,1.84,1.08,1.82,2.9-.04,5.81-.05,8.71,0,1.45.03,1.13-.95,1.18-1.76.05-.92.04-1.73-1.29-1.65-1.42.08-2.84.02-4.26.02Zm40.13,11.88h0c-1.35,0-2.71.03-4.06,0-1.3-.03-1.09.9-1.07,1.66.02.72-.32,1.72,1.01,1.71,2.71-.01,5.41,0,8.12,0,.41,0,.81.03,1.02-.54.6-1.7-.11-2.82-1.88-2.83-1.05,0-2.09,0-3.14,0Zm27.27-41.56c1.3,0,2.59-.04,3.89.01,1.32.05,1.11-.86,1.09-1.63-.02-.79.33-1.83-1.12-1.8-2.53.04-5.06.03-7.59,0-.79,0-1.04.31-1.1,1.09-.16,2.21-.09,2.33,2.05,2.33.93,0,1.85,0,2.78,0Zm8.96,56.8c.99,0,1.98-.05,2.96.01,1.31.09,1.13-.79,1.13-1.59,0-.8.16-1.65-1.13-1.61-2.04.05-4.08.04-6.11,0-.98-.02-1.22.4-1.28,1.33-.09,1.41.3,2.09,1.83,1.89.85-.11,1.73-.02,2.59-.02Zm11.08-48.63c-.68,0-1.36.04-2.03,0-1.09-.08-1.85-.02-1.83,1.48.02,1.37.41,1.88,1.8,1.77,1.28-.11,2.58-.07,3.87-.01,1.24.05,2.04-.02,2.02-1.71-.02-1.67-.9-1.56-1.98-1.52-.61.02-1.23,0-1.85,0Zm.27,48.63c.56,0,1.12-.05,1.67,0,1.25.13,1.91-.12,1.89-1.65-.02-1.45-.67-1.62-1.81-1.56-1.11.06-2.23.07-3.34,0-1.26-.09-1.92.15-1.9,1.67.02,1.45.69,1.63,1.83,1.54.55-.05,1.11,0,1.67,0Zm-28.93-11.87c.8,0,1.61-.03,2.41,0,1.36.06,1.04-.94,1.03-1.67,0-.72.36-1.72-1-1.7-1.54.02-3.09,0-4.63,0-.42,0-.82-.03-1.02.55-.6,1.72.11,2.81,1.91,2.82.43,0,.86,0,1.3,0Z"/>
      <path class="cls-4" d="m52.85,139.46c15.1,0,30.21,0,45.31,0,2.41,0,2.36,0,2.42,2.48.12,4.63-.47,9.28.56,13.87,1.4,6.25,4.31,11.68,9.01,16.1.39.37,1.1.75.92,1.29-.24.74-1.07.41-1.65.41-26.12.02-52.24.07-78.37-.02-7.45-.02-14.1-2.62-19.46-7.86-3.99-3.91-6.37-8.71-6.9-14.4-.32-3.4-.38-6.75-.04-10.16.16-1.6.87-1.74,2.13-1.74,9.59.03,19.19.01,28.78.01,5.76,0,11.51,0,17.27,0Z"/>
      <path class="cls-2" d="m85.19,31.06c-15.4,0-30.8,0-46.21.02-1.26,0-2.17-.05-2.02-1.73.09-1.03.41-1.48,1.43-1.39.31.03.62,0,.93,0,30.68,0,61.36,0,92.04.03.77,0,1.96-.64,2.24.86.33,1.72-.05,2.21-1.84,2.21-15.53,0-31.05,0-46.58,0Z"/>
      <path class="cls-5" d="m105.59,86.35c-8.79,0-17.58-.02-26.36.02-1.27,0-1.9-.18-1.88-1.68.01-1.42.49-1.75,1.83-1.75,17.7.04,35.4.04,53.1,0,1.29,0,1.87.2,1.86,1.69-.01,1.41-.45,1.75-1.81,1.74-8.91-.06-17.82-.03-26.73-.03Z"/>
      <path class="cls-5" d="m97.61,71.53c6,0,12.01.06,18.01-.04,1.65-.03,1.73.71,1.76,1.99.03,1.32-.26,1.83-1.72,1.82-12.13-.06-24.26-.07-36.39,0-1.65.01-1.72-.71-1.75-1.98-.03-1.31.23-1.85,1.71-1.83,6.13.09,12.25.04,18.38.04Z"/>
      <path class="cls-5" d="m95.21,61.46c5.37,0,10.75.04,16.12-.03,1.25-.01,1.58.4,1.54,1.59-.04,1.06-.1,1.69-1.47,1.69-10.87-.05-21.74-.05-32.61,0-1.36,0-1.44-.66-1.48-1.72-.04-1.22.39-1.57,1.6-1.55,5.43.06,10.87.03,16.3.03Z"/>
      <path class="cls-5" d="m90.36,110.09c-3.9,0-7.79-.05-11.69.03-1.27.02-1.53-.46-1.54-1.61,0-1.17.29-1.63,1.54-1.62,7.79.05,15.58.05,23.37,0,1.26,0,1.54.47,1.54,1.63,0,1.17-.29,1.63-1.55,1.61-3.89-.07-7.79-.03-11.69-.03Z"/>
      <path class="cls-5" d="m89.32,53.3c-3.46,0-6.92-.05-10.38.03-1.24.03-1.62-.41-1.56-1.6.05-1.06-.03-1.89,1.5-1.87,6.98.07,13.97.07,20.95,0,1.49-.02,1.52.71,1.52,1.81,0,1.06-.08,1.71-1.46,1.67-3.52-.1-7.04-.03-10.57-.03Z"/>
      <path class="cls-5" d="m84.91,122.62c-2.1,0-4.2-.04-6.29.01-1.67.04-1.26-1.14-1.29-2.05-.03-.92-.19-1.88,1.3-1.86,4.19.06,8.39.05,12.58,0,1.7-.02,1.22,1.16,1.26,2.05.04.91.24,1.91-1.27,1.86-2.09-.07-4.19-.02-6.29-.02Z"/>
      <path class="cls-5" d="m124.64,94.85c2.47,0,4.95.08,7.42-.03,1.42-.06,1.61.57,1.58,1.76-.02,1.07-.12,1.69-1.48,1.67-5.07-.08-10.14-.07-15.21,0-1.33.02-1.49-.56-1.5-1.66-.01-1.17.16-1.83,1.58-1.77,2.53.11,5.07.03,7.61.03Z"/>
      <path class="cls-5" d="m45.61,53.3c-2.4,0-4.81-.08-7.21.03-1.44.07-1.42-.71-1.41-1.71,0-.98-.07-1.78,1.38-1.76,4.87.07,9.74.07,14.61,0,1.4-.02,1.45.7,1.43,1.73-.02.98.07,1.81-1.39,1.74-2.46-.11-4.93-.03-7.4-.03Z"/>
      <path class="cls-5" d="m45.24,98.22c-2.23,0-4.46-.08-6.68.03-1.41.07-1.63-.56-1.6-1.75.03-1.06.12-1.7,1.48-1.68,4.64.08,9.28.08,13.91,0,1.34-.02,1.48.56,1.49,1.66,0,1.15-.11,1.84-1.56,1.77-2.34-.12-4.7-.03-7.05-.03Z"/>
      <path class="cls-5" d="m125.98,53.3c-2.04,0-4.09-.07-6.12.02-1.25.06-1.47-.54-1.38-1.57.07-.87-.31-1.91,1.25-1.89,4.21.06,8.41.06,12.62,0,1.56-.02,1.21.98,1.27,1.86.07.97-.03,1.66-1.33,1.6-2.1-.09-4.21-.03-6.31-.03Z"/>
      <path class="cls-5" d="m46.28,75.21c-2.65,0-5.31-.02-7.96.01-.89.01-1.36-.17-1.35-1.21.01-.96.36-1.3,1.3-1.3,5.43.02,10.86.02,16.29,0,.9,0,1.35.23,1.36,1.24,0,.98-.37,1.28-1.31,1.26-2.78-.04-5.55-.02-8.33-.02Z"/>
      <path class="cls-5" d="m128.09,118.74c1.42,0,2.84.05,4.25-.02,1.15-.06,1.42.54,1.26,1.47-.15.89.65,2.35-1.12,2.39-3.02.07-6.04.07-9.06,0-1.6-.03-.83-1.36-.92-2.12-.07-.69-.4-1.73.95-1.73,1.54,0,3.08,0,4.62,0h0Z"/>
      <path class="cls-5" d="m42.45,118.74c1.42,0,2.84.06,4.25-.02,1.47-.08,1.41.87,1.34,1.81-.06.87.47,2.11-1.23,2.1-2.89-.03-5.79,0-8.68-.01-1.72,0-1.03-1.33-1.12-2.16-.09-.85-.19-1.79,1.2-1.73,1.41.06,2.83.01,4.25.01Z"/>
      <path class="cls-5" d="m43.59,106.91c1.79,0,3.59.06,5.38-.02,1.24-.05,1.43.56,1.4,1.59-.02.95-.02,1.66-1.34,1.64-3.59-.07-7.17-.06-10.76,0-1.15.02-1.34-.54-1.29-1.48.04-.86-.16-1.78,1.23-1.74,1.79.06,3.59.02,5.38.01Z"/>
      <path class="cls-5" d="m107.55,122.62c-1.29,0-2.59-.05-3.87.01-1.72.08-1.21-1.17-1.24-2.04-.03-.86-.33-1.91,1.22-1.87,2.64.07,5.29.07,7.93,0,1.55-.04,1.27.99,1.23,1.86-.04.86.5,2.12-1.22,2.05-1.35-.05-2.71-.01-4.06-.01Z"/>
      <path class="cls-5" d="m127.88,75.26c-1.36,0-2.72-.07-4.08.02-1.54.1-1.3-.95-1.27-1.84.03-.83-.41-1.95,1.19-1.92,2.9.06,5.81.04,8.71,0,1.76-.02,1.06,1.28,1.17,2.11.12.92.07,1.72-1.27,1.64-1.48-.09-2.96-.02-4.45-.02Z"/>
      <path class="cls-5" d="m42.64,61.46c1.17,0,2.34.04,3.51-.01,1.16-.05,1.96-.02,1.94,1.59-.02,1.52-.68,1.7-1.92,1.66-2.59-.07-5.18-.09-7.76,0-1.43.05-1.4-.73-1.43-1.74-.03-1.05.19-1.61,1.41-1.53,1.41.09,2.83.02,4.25.02Z"/>
      <path class="cls-5" d="m42.42,82.97c1.42,0,2.85.07,4.26-.02,1.34-.08,1.34.73,1.29,1.65-.04.81.27,1.79-1.18,1.76-2.9-.06-5.81-.04-8.71,0-1.5.02-1.02-1.06-1.08-1.82-.06-.81-.13-1.64,1.15-1.58,1.42.07,2.84.02,4.26.02Z"/>
      <path class="cls-5" d="m82.54,94.85c1.05,0,2.09,0,3.14,0,1.77,0,2.48,1.12,1.88,2.83-.2.57-.6.54-1.02.54-2.71,0-5.41,0-8.12,0-1.34,0-.99-.99-1.01-1.71-.02-.76-.23-1.69,1.07-1.66,1.35.04,2.71,0,4.06,0h0Z"/>
      <path class="cls-5" d="m109.81,53.3c-.93,0-1.85,0-2.78,0-2.15,0-2.21-.12-2.05-2.33.06-.78.31-1.1,1.1-1.09,2.53.02,5.06.04,7.59,0,1.46-.02,1.1,1.01,1.12,1.8.02.77.22,1.68-1.09,1.63-1.29-.05-2.59-.01-3.89-.01Z"/>
      <path class="cls-5" d="m118.77,110.09c-.86,0-1.74-.09-2.59.02-1.54.2-1.92-.48-1.83-1.89.06-.93.3-1.35,1.28-1.33,2.04.04,4.08.05,6.11,0,1.29-.03,1.13.81,1.13,1.61,0,.8.17,1.68-1.13,1.59-.98-.07-1.98-.01-2.96-.01Z"/>
      <path class="cls-5" d="m129.85,61.46c.62,0,1.23.02,1.85,0,1.08-.03,1.96-.14,1.98,1.52.02,1.69-.77,1.77-2.02,1.71-1.29-.06-2.59-.1-3.87.01-1.39.12-1.78-.4-1.8-1.77-.02-1.5.74-1.56,1.83-1.48.67.05,1.35,0,2.03,0Z"/>
      <path class="cls-5" d="m130.12,110.09c-.56,0-1.12-.04-1.67,0-1.14.1-1.81-.09-1.83-1.54-.02-1.52.64-1.76,1.9-1.67,1.11.08,2.23.06,3.34,0,1.15-.06,1.79.1,1.81,1.56.02,1.53-.64,1.78-1.89,1.65-.55-.06-1.11,0-1.67,0Z"/>
      <path class="cls-5" d="m101.19,98.22c-.43,0-.86,0-1.3,0-1.8,0-2.51-1.09-1.91-2.82.2-.57.6-.54,1.02-.55,1.54-.01,3.09.01,4.63,0,1.36-.02.99.99,1,1.7,0,.73.32,1.73-1.03,1.67-.8-.03-1.61,0-2.41,0Z"/>
    </g>
  </g>
</svg>